REM DIRINDEX 1\2,1\3,1\4,1\5
REM DIRNAME folder01,folder02,folder03,folder04,folder05
TITLE ""
FILE "DISC1Track25.mp3" MP3
  TRACK 01 AUDIO
    TITLE "0:"
    INDEX 01 00:00:00
  TRACK 02 AUDIO
    TITLE "2:cjc117_0886"
    INDEX 01 00:00:03
  TRACK 03 AUDIO
    TITLE "0:"
    INDEX 01 00:01:40
  TRACK 04 AUDIO
    TITLE "3:cjc117_0887"
    INDEX 01 00:02:04
  TRACK 05 AUDIO
    TITLE "4:cjc117_0888"
    INDEX 01 00:04:52
  TRACK 06 AUDIO
    TITLE "5:cjc117_0889"
    INDEX 01 00:08:40
  TRACK 07 AUDIO
    TITLE "0:"
    INDEX 01 00:11:33
  TRACK 08 AUDIO
    TITLE "3:cjc117_0890"
    INDEX 01 00:11:68
  TRACK 09 AUDIO
    TITLE "4:cjc117_0891"
    INDEX 01 00:15:56
  TRACK 10 AUDIO
    TITLE "5:cjc117_0892"
    INDEX 01 00:19:67
  TRACK 11 AUDIO
    TITLE "0:"
    INDEX 01 00:23:10
  TRACK 12 AUDIO
    TITLE "3:cjc117_0893"
    INDEX 01 00:23:50
  TRACK 13 AUDIO
    TITLE "4:cjc117_0894"
    INDEX 01 00:25:01
  TRACK 14 AUDIO
    TITLE "5:cjc117_0895"
    INDEX 01 00:27:36
  TRACK 15 AUDIO
    TITLE "0:"
    INDEX 01 00:28:70
  TRACK 16 AUDIO
    TITLE "3:cjc117_0896"
    INDEX 01 00:29:33
  TRACK 17 AUDIO
    TITLE "4:cjc117_0897"
    INDEX 01 00:33:21
  TRACK 18 AUDIO
    TITLE "5:cjc117_0898"
    INDEX 01 00:37:30
  TRACK 19 AUDIO
    TITLE "0:"
    INDEX 01 00:40:42
  TRACK 20 AUDIO
    TITLE "3:cjc117_0899"
    INDEX 01 00:41:02
  TRACK 21 AUDIO
    TITLE "4:cjc117_0900"
    INDEX 01 00:44:18
  TRACK 22 AUDIO
    TITLE "5:cjc117_0901"
    INDEX 01 00:47:62
  TRACK 23 AUDIO
    TITLE "0:"
    INDEX 01 00:50:33
  TRACK 24 AUDIO
    TITLE "3:cjc117_0902"
    INDEX 01 00:50:70
  TRACK 25 AUDIO
    TITLE "4:cjc117_0903"
    INDEX 01 00:52:41
  TRACK 26 AUDIO
    TITLE "5:cjc117_0904"
    INDEX 01 00:54:70
  TRACK 27 AUDIO
    TITLE "0:"
    INDEX 01 00:56:24
  TRACK 28 AUDIO
    TITLE "3:cjc117_0905"
    INDEX 01 00:56:63
  TRACK 29 AUDIO
    TITLE "4:cjc117_0906"
    INDEX 01 00:59:38
  TRACK 30 AUDIO
    TITLE "5:cjc117_0907"
    INDEX 01 01:02:38
  TRACK 31 AUDIO
    TITLE "0:"
    INDEX 01 01:04:39
  TRACK 32 AUDIO
    TITLE "3:cjc117_0908"
    INDEX 01 01:05:01
  TRACK 33 AUDIO
    TITLE "4:cjc117_0909"
    INDEX 01 01:06:26
  TRACK 34 AUDIO
    TITLE "5:cjc117_0910"
    INDEX 01 01:08:58
  TRACK 35 AUDIO
    TITLE "0:"
    INDEX 01 01:10:16
  TRACK 36 AUDIO
    TITLE "3:cjc117_0911"
    INDEX 01 01:10:53
  TRACK 37 AUDIO
    TITLE "4:cjc117_0912"
    INDEX 01 01:14:10
  TRACK 38 AUDIO
    TITLE "5:cjc117_0913"
    INDEX 01 01:18:00
  TRACK 39 AUDIO
    TITLE "0:"
    INDEX 01 01:20:67
  TRACK 40 AUDIO
    TITLE "3:cjc117_0914"
    INDEX 01 01:21:27
  TRACK 41 AUDIO
    TITLE "4:cjc117_0915"
    INDEX 01 01:23:69
  TRACK 42 AUDIO
    TITLE "5:cjc117_0916"
    INDEX 01 01:27:67
  TRACK 43 AUDIO
    TITLE "0:"
    INDEX 01 01:30:67
  TRACK 44 AUDIO
    TITLE "3:cjc117_0917"
    INDEX 01 01:31:28
  TRACK 45 AUDIO
    TITLE "4:cjc117_0918"
    INDEX 01 01:34:22
  TRACK 46 AUDIO
    TITLE "5:cjc117_0919"
    INDEX 01 01:37:15
  TRACK 47 AUDIO
    TITLE "0:"
    INDEX 01 01:39:10
  TRACK 48 AUDIO
    TITLE "3:cjc117_0920"
    INDEX 01 01:39:47
  TRACK 49 AUDIO
    TITLE "4:cjc117_0921"
    INDEX 01 01:42:49
  TRACK 50 AUDIO
    TITLE "5:cjc117_0922"
    INDEX 01 01:46:65
  TRACK 51 AUDIO
    TITLE "0:"
    INDEX 01 01:50:09
  TRACK 52 AUDIO
    TITLE "3:cjc117_0923"
    INDEX 01 01:50:45
  TRACK 53 AUDIO
    TITLE "4:cjc117_0924"
    INDEX 01 01:53:16
  TRACK 54 AUDIO
    TITLE "5:cjc117_0925"
    INDEX 01 01:56:61
  TRACK 55 AUDIO
    TITLE "0:"
    INDEX 01 01:59:28
  TRACK 56 AUDIO
    TITLE "3:cjc117_0926"
    INDEX 01 01:59:65
  TRACK 57 AUDIO
    TITLE "4:cjc117_0927"
    INDEX 01 02:00:72
  TRACK 58 AUDIO
    TITLE "5:cjc117_0928"
    INDEX 01 02:03:02
  TRACK 59 AUDIO
    TITLE "0:"
    INDEX 01 02:04:10
